M48
; DRILL file {KiCad 8.0.1} date 2024-03-28T18:07:45-0600
; FORMAT={-:-/ absolute / metric / decimal}
; #@! TF.CreationDate,2024-03-28T18:07:45-06:00
; #@! TF.GenerationSoftware,Kicad,Pcbnew,8.0.1
; #@! TF.FileFunction,Plated,1,2,PTH
FMAT,2
METRIC
; #@! TA.AperFunction,Plated,PTH,ViaDrill
T1C0.400
; #@! TA.AperFunction,Plated,PTH,ComponentDrill
T2C1.000
; #@! TA.AperFunction,Plated,PTH,ComponentDrill
T3C1.100
; #@! TA.AperFunction,Plated,PTH,ComponentDrill
T4C1.200
; #@! TA.AperFunction,Plated,PTH,ViaDrill
T5C2.800
; #@! TA.AperFunction,Plated,PTH,ComponentDrill
T6C3.500
%
G90
G05
T1
X21.678Y164.428
X45.95Y151.637
X46.077Y146.049
X47.093Y151.637
X47.093Y146.049
X48.236Y151.637
X48.236Y146.049
X56.237Y156.717
X56.237Y152.653
X57.025Y93.476
X57.253Y155.701
X57.253Y152.653
X61.089Y91.0
X62.332Y143.998
X62.333Y146.049
X62.333Y145.024
X63.73Y151.637
X63.73Y146.176
X65.127Y151.637
X65.127Y146.176
X65.153Y89.5
X66.397Y151.637
X66.524Y146.176
X80.367Y146.049
X80.367Y145.024
X80.367Y143.998
X82.145Y151.637
X83.542Y151.637
X84.75Y93.476
X84.939Y151.637
X88.75Y91.0
X89.765Y147.065
X89.77Y145.546
X92.585Y89.5
X98.401Y153.669
X98.909Y157.733
X100.941Y165.191
X102.973Y147.065
X102.973Y145.541
X117.197Y167.385
T2
X14.194Y177.593
X16.734Y177.593
X19.274Y177.593
X21.814Y177.593
X24.354Y177.593
X26.894Y177.593
T3
X107.031Y121.18
X107.031Y118.64
X107.031Y116.1
T4
X23.395Y141.34
X23.395Y136.26
X23.395Y101.34
X23.395Y96.26
X23.395Y61.34
X23.395Y56.26
X23.395Y21.34
X23.395Y16.26
X27.357Y141.34
X27.357Y136.26
X27.357Y101.34
X27.357Y96.26
X27.357Y61.34
X27.357Y56.26
X27.357Y21.34
X27.357Y16.26
X31.32Y141.34
X31.32Y136.26
X31.32Y101.34
X31.32Y96.26
X31.32Y61.34
X31.32Y56.26
X31.32Y21.34
X31.32Y16.26
X35.282Y141.34
X35.282Y136.26
X35.282Y101.34
X35.282Y96.26
X35.282Y61.34
X35.282Y56.26
X35.282Y21.34
X35.282Y16.26
X39.245Y141.34
X39.245Y136.26
X39.245Y101.34
X39.245Y96.26
X39.245Y61.34
X39.245Y56.26
X39.245Y21.34
X39.245Y16.26
X43.207Y141.34
X43.207Y136.26
X43.207Y101.34
X43.207Y96.26
X43.207Y61.34
X43.207Y56.26
X43.207Y21.34
X43.207Y16.26
X47.169Y141.34
X47.169Y136.26
X47.169Y101.34
X47.169Y96.26
X47.169Y61.34
X47.169Y56.26
X47.169Y21.34
X47.169Y16.26
X51.132Y141.34
X51.132Y136.26
X51.132Y101.34
X51.132Y96.26
X51.132Y61.34
X51.132Y56.26
X51.132Y21.34
X51.132Y16.26
X55.094Y141.34
X55.094Y136.26
X55.094Y101.34
X55.094Y96.26
X55.094Y61.34
X55.094Y56.26
X55.094Y21.34
X55.094Y16.26
X59.056Y141.34
X59.056Y136.26
X59.056Y101.34
X59.056Y96.26
X59.056Y61.34
X59.056Y56.26
X59.056Y21.34
X59.056Y16.26
X63.019Y141.34
X63.019Y136.26
X63.019Y101.34
X63.019Y96.26
X63.019Y61.34
X63.019Y56.26
X63.019Y21.34
X63.019Y16.26
X66.981Y141.34
X66.981Y136.26
X66.981Y101.34
X66.981Y96.26
X66.981Y61.34
X66.981Y56.26
X66.981Y21.34
X66.981Y16.26
X70.944Y141.34
X70.944Y136.26
X70.944Y101.34
X70.944Y96.26
X70.944Y61.34
X70.944Y56.26
X70.944Y21.34
X70.944Y16.26
X74.906Y141.34
X74.906Y136.26
X74.906Y101.34
X74.906Y96.26
X74.906Y61.34
X74.906Y56.26
X74.906Y21.34
X74.906Y16.26
X78.868Y141.34
X78.868Y136.26
X78.868Y101.34
X78.868Y96.26
X78.868Y61.34
X78.868Y56.26
X78.868Y21.34
X78.868Y16.26
X82.831Y141.34
X82.831Y136.26
X82.831Y101.34
X82.831Y96.26
X82.831Y61.34
X82.831Y56.26
X82.831Y21.34
X82.831Y16.26
X86.793Y141.34
X86.793Y136.26
X86.793Y101.34
X86.793Y96.26
X86.793Y61.34
X86.793Y56.26
X86.793Y21.34
X86.793Y16.26
X90.755Y141.34
X90.755Y136.26
X90.755Y101.34
X90.755Y96.26
X90.755Y61.34
X90.755Y56.26
X90.755Y21.34
X90.755Y16.26
X94.718Y141.34
X94.718Y136.26
X94.718Y101.34
X94.718Y96.26
X94.718Y61.34
X94.718Y56.26
X94.718Y21.34
X94.718Y16.26
X98.68Y141.34
X98.68Y136.26
X98.68Y101.34
X98.68Y96.26
X98.68Y61.34
X98.68Y56.26
X98.68Y21.34
X98.68Y16.26
X102.643Y141.34
X102.643Y136.26
X102.643Y101.34
X102.643Y96.26
X102.643Y61.34
X102.643Y56.26
X102.643Y21.34
X102.643Y16.26
X106.605Y141.34
X106.605Y136.26
X106.605Y101.34
X106.605Y96.26
X106.605Y61.34
X106.605Y56.26
X106.605Y21.34
X106.605Y16.26
X111.095Y127.773
X111.095Y109.773
T5
X41.75Y178.5
X41.75Y6.608
X88.25Y178.5
X88.25Y6.608
T6
X14.55Y138.8
X14.55Y98.8
X14.55Y58.8
X14.55Y18.8
X115.45Y138.8
X115.45Y98.8
X115.45Y58.8
X115.45Y18.8
M30
