%TF.GenerationSoftware,KiCad,Pcbnew,8.0.1*%
%TF.CreationDate,2024-03-28T18:07:39-06:00*%
%TF.ProjectId,rck,72636b2e-6b69-4636-9164-5f7063625858,rev?*%
%TF.SameCoordinates,PX22c24e4PYbb5f0a8*%
%TF.FileFunction,Paste,Top*%
%TF.FilePolarity,Positive*%
%FSLAX46Y46*%
G04 Gerber Fmt 4.6, Leading zero omitted, Abs format (unit mm)*
G04 Created by KiCad (PCBNEW 8.0.1) date 2024-03-28 18:07:39*
%MOMM*%
%LPD*%
G01*
G04 APERTURE LIST*
G04 Aperture macros list*
%AMRoundRect*
0 Rectangle with rounded corners*
0 $1 Rounding radius*
0 $2 $3 $4 $5 $6 $7 $8 $9 X,Y pos of 4 corners*
0 Add a 4 corners polygon primitive as box body*
4,1,4,$2,$3,$4,$5,$6,$7,$8,$9,$2,$3,0*
0 Add four circle primitives for the rounded corners*
1,1,$1+$1,$2,$3*
1,1,$1+$1,$4,$5*
1,1,$1+$1,$6,$7*
1,1,$1+$1,$8,$9*
0 Add four rect primitives between the rounded corners*
20,1,$1+$1,$2,$3,$4,$5,0*
20,1,$1+$1,$4,$5,$6,$7,0*
20,1,$1+$1,$6,$7,$8,$9,0*
20,1,$1+$1,$8,$9,$2,$3,0*%
G04 Aperture macros list end*
%ADD10RoundRect,0.250000X0.312500X0.625000X-0.312500X0.625000X-0.312500X-0.625000X0.312500X-0.625000X0*%
%ADD11RoundRect,0.250000X0.375000X0.625000X-0.375000X0.625000X-0.375000X-0.625000X0.375000X-0.625000X0*%
G04 APERTURE END LIST*
D10*
%TO.C,R18*%
X107961860Y151510000D03*
X105036860Y151510000D03*
%TD*%
%TO.C,R10*%
X71019316Y167512000D03*
X68094316Y167512000D03*
%TD*%
D11*
%TO.C,rD15*%
X98683724Y151560000D03*
X95883724Y151560000D03*
%TD*%
D10*
%TO.C,R7*%
X52548044Y167512000D03*
X49623044Y167512000D03*
%TD*%
D11*
%TO.C,rD4*%
X43269908Y167512000D03*
X40469908Y167512000D03*
%TD*%
%TO.C,rD11*%
X80212452Y159511000D03*
X77412452Y159511000D03*
%TD*%
D10*
%TO.C,R6*%
X34076772Y151510000D03*
X31151772Y151510000D03*
%TD*%
D11*
%TO.C,rD13*%
X98683724Y167512000D03*
X95883724Y167512000D03*
%TD*%
D10*
%TO.C,R5*%
X34076772Y159511000D03*
X31151772Y159511000D03*
%TD*%
%TO.C,R8*%
X52548044Y159511000D03*
X49623044Y159511000D03*
%TD*%
%TO.C,R4*%
X34076772Y167512000D03*
X31151772Y167512000D03*
%TD*%
D11*
%TO.C,rD18*%
X117155000Y151560000D03*
X114355000Y151560000D03*
%TD*%
D10*
%TO.C,R16*%
X107961860Y167512000D03*
X105036860Y167512000D03*
%TD*%
%TO.C,R1*%
X15605500Y167512000D03*
X12680500Y167512000D03*
%TD*%
D11*
%TO.C,rD14*%
X98683724Y159511000D03*
X95883724Y159511000D03*
%TD*%
%TO.C,rD12*%
X80212452Y151560000D03*
X77412452Y151560000D03*
%TD*%
D10*
%TO.C,R9*%
X52548044Y151510000D03*
X49623044Y151510000D03*
%TD*%
%TO.C,R2*%
X15605500Y159511000D03*
X12680500Y159511000D03*
%TD*%
D11*
%TO.C,rD8*%
X61741180Y159511000D03*
X58941180Y159511000D03*
%TD*%
D10*
%TO.C,R17*%
X107961860Y159511000D03*
X105036860Y159511000D03*
%TD*%
D11*
%TO.C,rD9*%
X61741180Y151560000D03*
X58941180Y151560000D03*
%TD*%
%TO.C,rD6*%
X43269908Y151560000D03*
X40469908Y151560000D03*
%TD*%
%TO.C,rD5*%
X43269908Y159511000D03*
X40469908Y159511000D03*
%TD*%
%TO.C,rD16*%
X117155000Y167512000D03*
X114355000Y167512000D03*
%TD*%
D10*
%TO.C,R12*%
X71019316Y151510000D03*
X68094316Y151510000D03*
%TD*%
%TO.C,R14*%
X89490588Y159511000D03*
X86565588Y159511000D03*
%TD*%
D11*
%TO.C,rD2*%
X24798636Y159511000D03*
X21998636Y159511000D03*
%TD*%
D10*
%TO.C,R15*%
X89490588Y151510000D03*
X86565588Y151510000D03*
%TD*%
%TO.C,R11*%
X71019316Y159511000D03*
X68094316Y159511000D03*
%TD*%
D11*
%TO.C,rD17*%
X117155000Y159511000D03*
X114355000Y159511000D03*
%TD*%
%TO.C,rD1*%
X24798636Y167512000D03*
X21998636Y167512000D03*
%TD*%
%TO.C,rD10*%
X80212452Y167512000D03*
X77412452Y167512000D03*
%TD*%
D10*
%TO.C,R13*%
X89490588Y167512000D03*
X86565588Y167512000D03*
%TD*%
%TO.C,R3*%
X15605500Y151510000D03*
X12680500Y151510000D03*
%TD*%
D11*
%TO.C,rD7*%
X61741180Y167512000D03*
X58941180Y167512000D03*
%TD*%
%TO.C,rD3*%
X24798636Y151560000D03*
X21998636Y151560000D03*
%TD*%
M02*
